<?xml version="1.0" encoding="UTF-8" standalone="no"?>
<!DOCTYPE svg PUBLIC "-//W3C//DTD SVG 1.1//EN" "http://www.w3.org/Graphics/SVG/1.1/DTD/svg11.dtd">
<svg width="100%" height="100%" viewBox="0 0 1000 400" version="1.1" xmlns="http://www.w3.org/2000/svg" xmlns:xlink="http://www.w3.org/1999/xlink" xml:space="preserve" xmlns:serif="http://www.serif.com/" style="fill-rule:evenodd;clip-rule:evenodd;stroke-linejoin:round;stroke-miterlimit:2;">
    <path id="path4" d="M0,0L0,27.367L194.648,27.367L194.648,0L0,0ZM222.227,0L222.227,27.367L499.609,27.367C499.609,27.367 471.276,0 433.75,0L222.227,0ZM554.023,0L554.023,27.367L721.836,27.367L711.875,0L554.023,0ZM842.148,0L832.188,27.367L998.477,27.367L998.477,0L842.148,0ZM0,53.222L0,80.589L194.648,80.589L194.648,53.222L0,53.222ZM222.227,53.261L222.227,80.589L531.797,80.589C531.797,80.589 528.181,59.526 521.875,53.261L222.227,53.261ZM554.023,53.261L554.023,80.589L740.234,80.589L731.016,53.261L554.023,53.261ZM822.227,53.261L813.008,80.589L998.477,80.589L998.477,53.261L822.227,53.261ZM55.937,106.444L55.937,133.85L140.234,133.85L140.234,106.444L55.937,106.444ZM278.164,106.444L278.164,133.85L362.461,133.85L362.461,106.444L278.164,106.444ZM444.453,106.444L444.453,133.85L528.75,133.85C528.75,133.85 534.102,119.377 534.102,106.444L444.453,106.444ZM609.961,106.444L609.961,133.85L759.414,133.85L749.453,106.444L609.961,106.444ZM803.867,106.444L793.867,133.85L944.063,133.85L944.063,106.444L803.867,106.444ZM55.937,159.705L55.937,187.072L140.234,187.072L140.234,159.705L55.937,159.705ZM278.164,159.705L278.164,187.072L493.477,187.072C493.477,187.072 511.488,173.03 517.227,159.705L278.164,159.705ZM609.961,159.705L609.961,187.072L694.258,187.072L694.258,171.838L699.609,187.072L854.023,187.072L859.766,171.838L859.766,187.072L944.063,187.072L944.063,159.705L785.82,159.705L777.422,182.886L768.984,159.705L609.961,159.705ZM55.937,212.928L55.937,240.295L140.234,240.295L140.234,212.928L55.937,212.928ZM278.164,212.928L278.164,240.295L517.227,240.295C511.487,227.013 493.477,212.928 493.477,212.928L278.164,212.928ZM609.961,212.928L609.961,240.295L694.258,240.295L694.258,212.928L609.961,212.928ZM709.57,212.928L719.766,240.295L835.547,240.295L845.234,212.928L709.57,212.928ZM859.766,212.928L859.766,240.295L944.063,240.295L944.063,212.928L859.766,212.928ZM55.937,266.15L55.937,293.517L140.234,293.517L140.234,266.15L55.937,266.15ZM278.164,266.15L278.164,293.517L362.461,293.517L362.461,266.15L278.164,266.15ZM444.453,266.15L444.453,293.517L534.102,293.517C534.102,280.601 528.75,266.15 528.75,266.15L444.453,266.15ZM609.961,266.15L609.961,293.517L694.258,293.517L694.258,266.15L609.961,266.15ZM728.711,266.15L738.594,293.517L816.211,293.517L826.172,266.15L728.711,266.15ZM859.766,266.15L859.766,293.517L944.063,293.517L944.063,266.15L859.766,266.15ZM1.523,319.372L1.523,346.778L196.172,346.778L196.172,319.372L1.523,319.372ZM222.227,319.372L222.227,346.778L521.875,346.778C528.181,340.502 531.797,319.372 531.797,319.372L222.227,319.372ZM555.547,319.372L555.547,346.778L694.258,346.778L694.258,319.372L555.547,319.372ZM747.891,319.372L758.047,346.778L797.539,346.778L807.07,319.372L747.891,319.372ZM859.766,319.372L859.766,346.778L1000,346.778L1000,319.372L859.766,319.372ZM1.523,372.633L1.523,400L196.172,400L196.172,372.633L1.523,372.633ZM222.227,372.633L222.227,399.961L433.75,399.961C471.276,399.961 499.609,372.633 499.609,372.633L222.227,372.633ZM555.547,372.633L555.547,400L694.258,400L694.258,372.633L555.547,372.633ZM767.148,372.633L776.914,399.922L778.594,399.961L788.516,372.633L767.148,372.633ZM859.766,372.633L859.766,400L1000,400L1000,372.633L859.766,372.633Z" style="fill:rgb(175,175,175);fill-rule:nonzero;"/>
</svg>
