<?xml version="1.0" encoding="UTF-8" standalone="no"?>
<!DOCTYPE svg PUBLIC "-//W3C//DTD SVG 1.1//EN" "http://www.w3.org/Graphics/SVG/1.1/DTD/svg11.dtd">
<svg width="100%" height="100%" viewBox="0 0 508 166" version="1.1" xmlns="http://www.w3.org/2000/svg" xmlns:xlink="http://www.w3.org/1999/xlink" xml:space="preserve" xmlns:serif="http://www.serif.com/" style="fill-rule:evenodd;clip-rule:evenodd;stroke-linejoin:round;stroke-miterlimit:2;">
    <g transform="matrix(0.989273,0,0,0.999398,5.45149,0)">
        <rect x="340.4" y="0" width="167.8" height="166.1" style="fill:rgb(175,175,175);fill-rule:nonzero;"/>
    </g>
    <g transform="matrix(0.989273,0,0,0.999398,-336.749,0)">
        <rect x="340.4" y="0" width="167.8" height="166.1" style="fill:rgb(175,175,175);fill-rule:nonzero;"/>
    </g>
    <g transform="matrix(0.989273,0,0,0.999398,-165.649,0)">
        <rect x="340.4" y="0" width="167.8" height="166.1" style="fill:rgb(175,175,175);fill-rule:nonzero;"/>
    </g>
    <g transform="matrix(1,0,0,1,-33.03,-23.33)">
        <path d="M135.7,151.4L135.7,101.1C135.7,93.7 134.3,88.3 131.4,84.8C128.5,81.3 123.9,79.7 117.4,79.7C114,79.8 110.8,80.7 107.8,82.2C104.7,83.6 101.9,85.8 99.8,88.5L99.8,151.5L79.5,151.5L79.5,64L94.2,64L98,72.2C103.5,65.8 111.7,62.6 122.6,62.6C133,62.6 141.2,65.7 147.2,71.9C153.2,78.1 156.2,86.8 156.2,97.9L156.2,151.5L135.7,151.4Z" style="fill:white;fill-rule:nonzero;"/>
        <path d="M286.5,153.1C299.8,153.1 310.4,149.2 318.1,141.5C325.8,133.8 329.7,122.8 329.7,108.5C329.7,77.8 315.8,62.5 287.9,62.5C280.9,62.3 274.1,64.9 269.1,69.8L269.1,64L248.7,64L248.7,174.6L269,174.6L269,149.3C274.5,151.9 280.5,153.2 286.5,153.1ZM282,79.9C291.4,79.9 298.1,82 302.2,86.2C306.3,90.4 308.3,97.7 308.3,108C308.3,117.7 306.2,124.7 302.2,129.2C298.1,133.7 291.4,135.9 282,135.9C277.3,136 272.7,134.4 269.1,131.4L269.1,85.6C272.4,82 277.1,80 282,79.9Z" style="fill:white;fill-rule:nonzero;"/>
        <path d="M481.3,83.1C477.7,80.8 473.6,79.6 469.4,79.7C464.7,79.7 460.5,81.8 456.9,86.1C453.2,90.5 451.2,96.1 451.4,101.8L451.4,151.4L431,151.4L431,64L451.4,64L451.4,72.4C457.1,65.9 464.6,62.6 474.1,62.6C481,62.6 486.3,63.7 490,65.8L481.3,83.1Z" style="fill:white;fill-rule:nonzero;"/>
    </g>
</svg>
