<?xml version="1.0" encoding="UTF-8" standalone="no"?>
<!DOCTYPE svg PUBLIC "-//W3C//DTD SVG 1.1//EN" "http://www.w3.org/Graphics/SVG/1.1/DTD/svg11.dtd">
<svg width="100%" height="100%" viewBox="0 0 1024 247" version="1.1" xmlns="http://www.w3.org/2000/svg" xmlns:xlink="http://www.w3.org/1999/xlink" xml:space="preserve" xmlns:serif="http://www.serif.com/" style="fill-rule:evenodd;clip-rule:evenodd;stroke-linejoin:round;stroke-miterlimit:2;">
    <g id="path2876" transform="matrix(1.25,0,0,-1.25,162.785,30.2289)">
        <path d="M475.82,-91.85C475.82,-101.75 476.18,-102.03 485.16,-102.03L515.11,-102.03C516.38,-102.03 517.44,-103.09 517.44,-104.38L517.44,-111.94C517.44,-113.6 516.86,-114.2 515.11,-114.42C511.3,-115.02 503.6,-116.07 489.55,-116.07C469.88,-116.07 459.49,-116.2 459.49,-91.84L459.49,-54.43C459.49,-30.06 469.88,-30.19 489.55,-30.19C503.6,-30.19 511.29,-31.26 515.11,-31.84C516.86,-32.08 517.44,-32.67 517.44,-34.33L517.44,-41.88C517.44,-43.18 516.37,-44.26 515.11,-44.26L485.16,-44.26C476.18,-44.26 475.82,-44.52 475.82,-54.42L475.82,-65.25L513.66,-65.25C514.98,-65.25 516.01,-66.33 516.01,-67.61L516.01,-76.14C516.01,-77.43 514.98,-78.5 513.66,-78.5L475.82,-78.5L475.82,-91.85ZM650.67,-116.13C640.22,-116.13 629.63,-114.34 623.95,-113.03C622.79,-112.79 621.71,-111.97 621.71,-110.67L621.71,-102.16C621.71,-100.86 622.79,-99.91 623.95,-99.91L624.19,-99.91C628.92,-100.5 640,-102.04 650.93,-102.04C661.44,-102.04 664.65,-98.28 664.65,-91.42C664.65,-82.55 643.49,-77.64 633.15,-73.39C622.88,-69.13 619.22,-60.99 619.22,-52.71C619.22,-39.7 629.7,-30.24 651.67,-30.24C662.94,-30.24 673.27,-32.38 677.28,-33.36C678.47,-33.6 679.39,-34.42 679.39,-35.59L679.39,-44.34C679.39,-45.51 678.59,-46.46 677.39,-46.46L677.16,-46.46C669.36,-45.76 661.26,-44.33 650.99,-44.33C642.22,-44.33 635.66,-47.39 635.66,-52.71C635.66,-56.6 640.11,-60.19 645.36,-62.26C650.61,-64.32 657.5,-67.01 665.37,-70.18C675.31,-74.21 681.78,-80.08 681.78,-91.41C681.77,-103.36 674.33,-116.13 650.67,-116.13M587.81,-56.94C587.81,-48.07 580.94,-44.29 569.09,-44.29C566.62,-44.29 555.87,-44.53 553.73,-44.75L553.73,-70.39C555.64,-70.51 567.11,-70.75 569.09,-70.75C581.28,-70.75 587.81,-68.4 587.81,-58L587.81,-56.94ZM605.55,-115.14L591.1,-115.14C589.81,-115.14 589.34,-113.95 588.75,-112.77L571.71,-84.11L569.07,-84.11C566.01,-84.11 556.46,-83.77 553.71,-83.63L553.71,-112.77C553.71,-114.07 552.78,-115.14 551.48,-115.14L539.67,-115.14C538.36,-115.14 537.3,-114.07 537.3,-112.77L537.3,-35.29C537.3,-32.91 538.7,-32.09 541.07,-31.73C547.22,-30.79 560.46,-30.2 569.06,-30.2C587.29,-30.2 604.09,-36.71 604.09,-56.93L604.09,-58C604.09,-70.52 597.81,-77.38 588.13,-81.14L606.71,-112.78C606.95,-113.14 606.95,-113.47 606.95,-113.74C606.97,-114.54 606.49,-115.14 605.55,-115.14M444.99,-44.86L421.4,-44.86L421.4,-112.78C421.4,-114.08 420.31,-115.15 419,-115.15L407.31,-115.15C406,-115.15 404.94,-114.08 404.94,-112.78L404.94,-44.86L381.33,-44.86C380.05,-44.86 378.98,-44.06 378.98,-42.75L378.98,-33.41C378.98,-32.1 380.05,-31.16 381.33,-31.16L444.99,-31.16C446.27,-31.16 447.34,-32.1 447.34,-33.41L447.34,-42.75C447.34,-44.06 446.27,-44.86 444.99,-44.86M331.8,-116.08C312.79,-116.08 296.39,-107.81 296.39,-82.6L296.39,-33.41C296.39,-32.1 297.47,-31.16 298.77,-31.16L310.45,-31.16C311.77,-31.16 312.82,-32.1 312.82,-33.41L312.82,-82.6C312.82,-96.09 319.05,-102.48 331.8,-102.48C344.59,-102.48 350.8,-96.09 350.8,-82.6L350.8,-33.41C350.8,-32.1 351.87,-31.16 353.16,-31.16L364.86,-31.16C366.18,-31.16 367.24,-32.1 367.24,-33.41L367.24,-82.6C367.25,-107.81 350.85,-116.08 331.8,-116.08M237.1,-91.85C237.1,-101.75 237.48,-102.03 246.42,-102.03L276.35,-102.03C277.66,-102.03 278.72,-103.09 278.72,-104.38L278.72,-111.94C278.72,-113.6 278.12,-114.2 276.35,-114.42C272.57,-115.02 264.86,-116.07 250.8,-116.07C231.18,-116.07 220.77,-116.2 220.77,-91.84L220.77,-54.43C220.77,-30.06 231.18,-30.19 250.8,-30.19C264.86,-30.19 272.56,-31.26 276.35,-31.84C278.13,-32.08 278.72,-32.67 278.72,-34.33L278.72,-41.88C278.72,-43.18 277.65,-44.26 276.35,-44.26L246.42,-44.26C237.48,-44.26 237.1,-44.52 237.1,-54.42L237.1,-65.25L274.94,-65.25C276.24,-65.25 277.31,-66.33 277.31,-67.61L277.31,-76.14C277.31,-77.43 276.24,-78.5 274.94,-78.5L237.1,-78.5L237.1,-91.85ZM186.42,-56.94C186.42,-48.07 179.54,-44.29 167.72,-44.29C165.22,-44.29 154.46,-44.53 152.35,-44.75L152.35,-70.39C154.22,-70.51 165.68,-70.75 167.72,-70.75C179.88,-70.75 186.42,-68.4 186.42,-58L186.42,-56.94ZM204.16,-115.14L189.72,-115.14C188.43,-115.14 187.95,-113.95 187.37,-112.77L170.33,-84.11L167.73,-84.11C164.64,-84.11 155.08,-83.77 152.36,-83.63L152.36,-112.77C152.36,-114.07 151.4,-115.14 150.1,-115.14L138.28,-115.14C136.99,-115.14 135.93,-114.07 135.93,-112.77L135.93,-35.29C135.93,-32.91 137.33,-32.09 139.71,-31.73C145.87,-30.79 159.09,-30.2 167.73,-30.2C185.93,-30.2 202.75,-36.71 202.75,-56.93L202.75,-58C202.75,-70.52 196.48,-77.38 186.79,-81.14L205.34,-112.78C205.58,-113.14 205.58,-113.47 205.58,-113.74C205.57,-114.54 205.1,-115.14 204.16,-115.14" style="fill:rgb(175,175,175);fill-rule:nonzero;"/>
    </g>
    <g id="path2898" transform="matrix(1.25,0,0,-1.25,-735.35,72.1562)">
        <path d="M685.43,-8.38C683.76,-9.28 683.17,-11.37 684.04,-13.02C684.93,-14.71 687.04,-15.31 688.71,-14.43C690.37,-13.52 690.98,-11.44 690.09,-9.76C689.48,-8.62 688.3,-7.95 687.07,-7.95C686.51,-7.96 685.95,-8.1 685.43,-8.38M694.66,-8.53C693.16,-9.32 692.64,-11.17 693.43,-12.66C694.21,-14.14 696.06,-14.7 697.54,-13.88C699.05,-13.07 699.58,-11.23 698.79,-9.75C698.25,-8.73 697.21,-8.15 696.13,-8.15C695.63,-8.14 695.13,-8.27 694.66,-8.53M676.67,-10.99C674.79,-12.01 674.07,-14.37 675.1,-16.25C676.12,-18.14 678.47,-18.87 680.39,-17.84C682.28,-16.82 682.97,-14.46 681.96,-12.58C681.26,-11.26 679.92,-10.52 678.53,-10.52C677.9,-10.52 677.26,-10.67 676.67,-10.99M703.52,-11.41C702.22,-12.13 701.72,-13.78 702.42,-15.06C703.12,-16.36 704.77,-16.83 706.03,-16.12C707.36,-15.42 707.84,-13.8 707.12,-12.51C706.64,-11.61 705.71,-11.1 704.76,-11.1C704.33,-11.11 703.91,-11.2 703.52,-11.41M669.72,-16.86C668.03,-17.79 667.4,-19.83 668.32,-21.54C669.22,-23.19 671.28,-23.82 672.95,-22.92C674.65,-22.02 675.27,-19.92 674.37,-18.27C673.75,-17.12 672.56,-16.45 671.33,-16.45C670.78,-16.44 670.23,-16.58 669.72,-16.86M711.14,-16.9C710,-17.52 709.59,-18.9 710.18,-20.01C710.78,-21.12 712.16,-21.52 713.31,-20.96C714.41,-20.33 714.85,-18.94 714.24,-17.82C713.82,-17.06 713.03,-16.61 712.22,-16.61C711.86,-16.62 711.48,-16.71 711.14,-16.9M716.77,-24.41C715.88,-24.93 715.51,-26.11 716.03,-27.02C716.52,-27.95 717.68,-28.28 718.59,-27.79C719.52,-27.29 719.87,-26.15 719.37,-25.22C719.01,-24.56 718.35,-24.2 717.67,-24.2C717.36,-24.2 717.06,-24.26 716.77,-24.41M664.77,-24.65C663.28,-25.45 662.74,-27.31 663.51,-28.79C664.33,-30.26 666.18,-30.83 667.65,-30.03C669.14,-29.24 669.71,-27.38 668.9,-25.88C668.34,-24.87 667.28,-24.29 666.2,-24.29C665.72,-24.29 665.23,-24.41 664.77,-24.65M719.63,-32.62C718.5,-33.21 718.08,-34.62 718.7,-35.73C719.28,-36.84 720.69,-37.25 721.77,-36.68C722.9,-36.03 723.33,-34.63 722.74,-33.54C722.32,-32.77 721.53,-32.34 720.72,-32.34C720.34,-32.34 719.98,-32.44 719.63,-32.62M662.34,-33.67C661.06,-34.36 660.59,-35.98 661.27,-37.27C661.99,-38.59 663.6,-39.06 664.9,-38.36C666.19,-37.65 666.68,-36.01 665.98,-34.74C665.5,-33.85 664.58,-33.34 663.63,-33.34C663.2,-33.33 662.75,-33.43 662.34,-33.67M719.65,-41.33C718.34,-42.05 717.88,-43.65 718.55,-44.97C719.24,-46.24 720.91,-46.72 722.2,-46.03C723.49,-45.32 723.96,-43.7 723.26,-42.41C722.78,-41.51 721.87,-41.01 720.92,-41.01C720.49,-41.01 720.06,-41.11 719.65,-41.33M662.73,-43.02C661.63,-43.63 661.21,-45.03 661.82,-46.14C662.42,-47.27 663.82,-47.66 664.91,-47.04C666.03,-46.47 666.48,-45.05 665.85,-43.95C665.42,-43.19 664.64,-42.75 663.82,-42.75C663.45,-42.75 663.07,-42.84 662.73,-43.02M716.88,-49.65C715.39,-50.43 714.84,-52.33 715.63,-53.81C716.45,-55.28 718.29,-55.84 719.75,-55.04C721.27,-54.22 721.8,-52.39 721.02,-50.89C720.47,-49.87 719.42,-49.28 718.33,-49.28C717.84,-49.28 717.34,-49.4 716.88,-49.65M665.93,-51.89C664.99,-52.38 664.66,-53.54 665.16,-54.5C665.66,-55.41 666.8,-55.76 667.75,-55.27C668.67,-54.75 669.02,-53.59 668.51,-52.66C668.16,-52.03 667.49,-51.66 666.81,-51.66C666.51,-51.67 666.21,-51.74 665.93,-51.89M711.56,-56.76C709.88,-57.66 709.27,-59.76 710.17,-61.41C711.06,-63.08 713.14,-63.7 714.83,-62.79C716.5,-61.92 717.11,-59.81 716.21,-58.15C715.58,-57 714.4,-56.34 713.18,-56.34C712.63,-56.34 712.08,-56.48 711.56,-56.76M671.23,-58.75C670.12,-59.33 669.7,-60.74 670.3,-61.84C670.89,-62.96 672.28,-63.37 673.39,-62.75C674.49,-62.18 674.91,-60.79 674.32,-59.67C673.91,-58.91 673.12,-58.49 672.31,-58.49C671.95,-58.48 671.58,-58.57 671.23,-58.75M704.13,-61.86C702.25,-62.87 701.52,-65.23 702.57,-67.13C703.59,-69.01 705.96,-69.71 707.86,-68.71C709.74,-67.67 710.45,-65.3 709.43,-63.45C708.72,-62.14 707.38,-61.38 705.99,-61.38C705.36,-61.37 704.72,-61.52 704.13,-61.86M678.5,-63.55C677.17,-64.27 676.7,-65.87 677.42,-67.17C678.09,-68.47 679.73,-68.97 681.03,-68.27C682.33,-67.54 682.82,-65.9 682.11,-64.62C681.62,-63.74 680.69,-63.23 679.75,-63.23C679.33,-63.22 678.9,-63.32 678.5,-63.55M695.82,-65.26C694.14,-66.15 693.56,-68.23 694.47,-69.92C695.34,-71.58 697.42,-72.23 699.1,-71.3C700.78,-70.42 701.38,-68.32 700.49,-66.66C699.86,-65.51 698.68,-64.86 697.46,-64.86C696.9,-64.85 696.34,-64.98 695.82,-65.26M686.96,-65.79C685.48,-66.59 684.95,-68.46 685.73,-69.93C686.55,-71.42 688.39,-71.98 689.88,-71.18C691.38,-70.4 691.93,-68.53 691.12,-67.03C690.58,-66.01 689.52,-65.44 688.42,-65.44C687.93,-65.44 687.42,-65.55 686.96,-65.79" style="fill:rgb(175,175,175);fill-rule:nonzero;"/>
    </g>
    <g id="path2920" transform="matrix(1.25,0,0,-1.25,-735.35,72.1562)">
        <path d="M686.94,1C686.26,-1.31 687.57,-3.72 689.89,-4.42C692.2,-5.1 694.61,-3.76 695.31,-1.47C696,0.84 694.68,3.28 692.37,3.96C691.95,4.08 691.53,4.14 691.12,4.14C689.23,4.13 687.51,2.89 686.94,1M698.63,-0.41C697.85,-3.08 699.33,-5.84 702.02,-6.63C704.67,-7.42 707.45,-5.91 708.23,-3.26C709.03,-0.58 707.51,2.22 704.84,3C704.37,3.14 703.9,3.2 703.43,3.2C701.26,3.19 699.27,1.77 698.63,-0.41M675.21,-1.43C674.61,-3.49 675.8,-5.64 677.86,-6.25C679.9,-6.85 682.07,-5.69 682.67,-3.62C683.25,-1.58 682.07,0.58 680.04,1.19C679.68,1.3 679.32,1.34 678.96,1.34C677.27,1.35 675.72,0.25 675.21,-1.43M710.46,-5.93C709.78,-8.23 711.11,-10.66 713.42,-11.34C715.73,-12.02 718.16,-10.68 718.84,-8.37C719.53,-6.07 718.21,-3.64 715.89,-2.95C715.48,-2.83 715.06,-2.77 714.66,-2.77C712.77,-2.77 711.03,-4.02 710.46,-5.93M665.13,-7.62C664.65,-9.25 665.57,-10.93 667.2,-11.42C668.82,-11.89 670.52,-10.95 670.99,-9.34C671.46,-7.73 670.53,-6.03 668.92,-5.55C668.63,-5.47 668.34,-5.43 668.06,-5.43C666.73,-5.42 665.52,-6.29 665.13,-7.62M719.93,-14.56C719.32,-16.64 720.51,-18.78 722.55,-19.38C724.61,-19.98 726.75,-18.79 727.37,-16.73C727.98,-14.69 726.81,-12.54 724.74,-11.94C724.38,-11.83 724.01,-11.78 723.65,-11.78C721.99,-11.79 720.45,-12.88 719.93,-14.56M657.15,-16.79C656.76,-18.09 657.52,-19.47 658.83,-19.84C660.14,-20.22 661.5,-19.48 661.9,-18.18C662.31,-16.88 661.53,-15.51 660.23,-15.11C660,-15.05 659.78,-15.02 659.56,-15.02C658.47,-15.01 657.47,-15.69 657.15,-16.79M726.67,-25.68C726.18,-27.33 727.14,-29.02 728.74,-29.48C730.37,-29.96 732.06,-29.03 732.53,-27.41C733.01,-25.79 732.09,-24.09 730.47,-23.63C730.18,-23.54 729.88,-23.5 729.59,-23.5C728.27,-23.5 727.05,-24.37 726.67,-25.68M652.46,-28.17C652.17,-29.16 652.71,-30.2 653.69,-30.49C654.68,-30.78 655.7,-30.2 655.99,-29.22C656.28,-28.25 655.72,-27.22 654.73,-26.93C654.55,-26.88 654.38,-26.86 654.21,-26.86C653.42,-26.85 652.69,-27.37 652.46,-28.17M729.53,-38.05C729.13,-39.34 729.88,-40.74 731.21,-41.11C732.52,-41.5 733.88,-40.75 734.28,-39.43C734.66,-38.14 733.93,-36.76 732.6,-36.37C732.37,-36.31 732.14,-36.27 731.91,-36.27C730.83,-36.26 729.83,-36.97 729.53,-38.05M650.24,-40.29C649.85,-41.6 650.62,-42.96 651.93,-43.35C653.24,-43.74 654.6,-43 655,-41.68C655.39,-40.38 654.64,-39 653.33,-38.61C653.1,-38.55 652.87,-38.51 652.64,-38.51C651.57,-38.51 650.58,-39.22 650.24,-40.29M728.52,-50.52C728.25,-51.49 728.8,-52.53 729.76,-52.81C730.76,-53.1 731.77,-52.55 732.05,-51.55C732.35,-50.59 731.8,-49.55 730.8,-49.26C730.63,-49.21 730.47,-49.19 730.3,-49.19C729.51,-49.19 728.76,-49.72 728.52,-50.52M652.01,-52.33C651.55,-53.94 652.43,-55.65 654.07,-56.12C655.68,-56.61 657.38,-55.66 657.85,-54.04C658.33,-52.42 657.4,-50.72 655.79,-50.28C655.49,-50.19 655.19,-50.15 654.89,-50.15C653.58,-50.14 652.38,-51.01 652.01,-52.33M722.62,-61.55C722.25,-62.87 722.99,-64.25 724.28,-64.62C725.61,-65.01 726.99,-64.26 727.37,-62.95C727.74,-61.66 727,-60.26 725.69,-59.87C725.46,-59.81 725.23,-59.77 725,-59.77C723.94,-59.77 722.95,-60.47 722.62,-61.55M657.14,-62.98C656.53,-65.03 657.7,-67.18 659.76,-67.8C661.84,-68.41 663.97,-67.23 664.59,-65.18C665.19,-63.13 663.99,-60.95 661.94,-60.34C661.57,-60.23 661.21,-60.18 660.85,-60.18C659.18,-60.18 657.65,-61.28 657.14,-62.98M713.53,-70.39C713.07,-72 714.01,-73.7 715.62,-74.18C717.23,-74.66 718.93,-73.73 719.39,-72.13C719.88,-70.5 718.96,-68.8 717.34,-68.33C717.05,-68.24 716.75,-68.2 716.46,-68.2C715.14,-68.2 713.93,-69.08 713.53,-70.39M665.7,-71.38C665.03,-73.67 666.32,-76.09 668.65,-76.78C670.98,-77.45 673.39,-76.12 674.08,-73.83C674.75,-71.54 673.43,-69.09 671.11,-68.41C670.69,-68.29 670.28,-68.23 669.88,-68.23C667.98,-68.23 666.26,-69.47 665.7,-71.38M676.28,-76.48C675.51,-79.16 677,-81.93 679.68,-82.72C682.33,-83.48 685.14,-81.95 685.89,-79.32C686.67,-76.65 685.17,-73.86 682.49,-73.08C682.02,-72.95 681.55,-72.88 681.08,-72.88C678.91,-72.88 676.91,-74.3 676.28,-76.48M701.85,-76.11C701.25,-78.17 702.44,-80.33 704.48,-80.93C706.55,-81.53 708.7,-80.37 709.3,-78.3C709.9,-76.26 708.74,-74.1 706.67,-73.5C706.3,-73.38 705.93,-73.33 705.57,-73.33C703.89,-73.33 702.34,-74.43 701.85,-76.11M689.2,-78.28C688.53,-80.57 689.86,-82.98 692.16,-83.67C694.48,-84.37 696.91,-83.04 697.57,-80.74C698.23,-78.42 696.94,-75.99 694.62,-75.32C694.2,-75.2 693.79,-75.14 693.38,-75.14C691.5,-75.14 689.76,-76.37 689.2,-78.28" style="fill:rgb(175,175,175);fill-rule:nonzero;"/>
    </g>
    <g id="path2942" transform="matrix(1.25,0,0,-1.25,-735.35,72.1562)">
        <path d="M695.33,15.97C693.45,13.97 693.54,10.82 695.55,8.94C697.55,7.05 700.7,7.14 702.57,9.14C704.46,11.15 704.35,14.28 702.36,16.18C701.4,17.08 700.18,17.52 698.96,17.52C697.64,17.52 696.31,17 695.33,15.97M679.58,14.75C678.1,13.17 678.17,10.7 679.75,9.2C681.32,7.73 683.8,7.81 685.29,9.38C686.76,10.95 686.69,13.44 685.12,14.92C684.36,15.63 683.4,15.98 682.44,15.98C681.39,15.97 680.35,15.56 679.58,14.75M710.76,11.77C708.64,9.53 708.73,6 710.98,3.87C713.22,1.75 716.79,1.86 718.89,4.09C721,6.34 720.91,9.89 718.66,12C717.57,13.02 716.19,13.53 714.81,13.53C713.34,13.54 711.86,12.94 710.76,11.77M664.55,8.67C663.35,7.4 663.41,5.41 664.68,4.19C665.96,3 667.97,3.05 669.17,4.33C670.37,5.6 670.31,7.61 669.04,8.8C668.42,9.37 667.64,9.66 666.86,9.66C666.01,9.66 665.18,9.33 664.55,8.67M723.82,3.02C721.37,0.44 721.47,-3.61 724.07,-6.06C726.65,-8.52 730.73,-8.38 733.16,-5.82C735.6,-3.21 735.48,0.86 732.9,3.3C731.65,4.47 730.07,5.05 728.5,5.05C726.79,5.05 725.08,4.37 723.82,3.02M652.07,-2.01C651.17,-2.97 651.21,-4.45 652.16,-5.35C653.13,-6.26 654.62,-6.21 655.5,-5.26C656.4,-4.3 656.35,-2.81 655.41,-1.91C654.94,-1.49 654.35,-1.28 653.77,-1.28C653.15,-1.27 652.53,-1.52 652.07,-2.01M734.54,-10.63C732.42,-12.87 732.51,-16.42 734.78,-18.54C737.04,-20.66 740.58,-20.53 742.68,-18.3C744.81,-16.04 744.71,-12.52 742.44,-10.38C741.37,-9.37 740,-8.87 738.63,-8.87C737.13,-8.87 735.64,-9.46 734.54,-10.63M642.16,-15.1C640.95,-16.37 641.02,-18.37 642.3,-19.58C643.57,-20.77 645.57,-20.72 646.78,-19.46C647.96,-18.19 647.91,-16.19 646.64,-14.99C646.03,-14.41 645.25,-14.12 644.47,-14.12C643.63,-14.11 642.79,-14.45 642.16,-15.1M740.55,-26.62C738.66,-28.62 738.76,-31.77 740.77,-33.65C742.77,-35.55 745.93,-35.44 747.8,-33.44C749.69,-31.45 749.59,-28.3 747.59,-26.42C746.63,-25.51 745.4,-25.06 744.17,-25.06C742.85,-25.05 741.53,-25.58 740.55,-26.62M636.99,-30.48C635.53,-32.06 635.57,-34.52 637.16,-36C638.73,-37.49 641.21,-37.4 642.7,-35.84C644.18,-34.27 644.09,-31.77 642.54,-30.3C641.77,-29.58 640.8,-29.23 639.84,-29.23C638.8,-29.24 637.76,-29.65 636.99,-30.48M741.81,-43.87C740.33,-45.44 740.42,-47.92 741.99,-49.4C743.58,-50.9 746.04,-50.81 747.53,-49.23C749.01,-47.66 748.96,-45.19 747.36,-43.7C746.61,-42.99 745.65,-42.64 744.68,-42.64C743.63,-42.65 742.58,-43.06 741.81,-43.87M636.71,-46.27C634.84,-48.26 634.93,-51.42 636.93,-53.3C638.93,-55.2 642.08,-55.1 643.96,-53.1C645.84,-51.11 645.75,-47.96 643.75,-46.05C642.79,-45.15 641.57,-44.7 640.35,-44.7C639.02,-44.7 637.7,-45.23 636.71,-46.27M737.74,-60.26C736.53,-61.53 736.59,-63.54 737.87,-64.76C739.16,-65.96 741.16,-65.9 742.37,-64.6C743.56,-63.33 743.51,-61.32 742.24,-60.12C741.62,-59.55 740.84,-59.27 740.06,-59.26C739.21,-59.26 738.37,-59.59 737.74,-60.26M641.84,-61.42C639.72,-63.65 639.79,-67.19 642.05,-69.33C644.32,-71.44 647.86,-71.32 649.96,-69.09C652.08,-66.85 651.97,-63.29 649.73,-61.19C648.65,-60.17 647.28,-59.66 645.92,-59.66C644.44,-59.65 642.94,-60.26 641.84,-61.42M651.35,-73.91C648.92,-76.53 649.04,-80.55 651.63,-83.01C654.21,-85.45 658.29,-85.34 660.71,-82.74C663.15,-80.15 663.03,-76.1 660.44,-73.64C659.19,-72.47 657.61,-71.89 656.03,-71.89C654.32,-71.88 652.61,-72.56 651.35,-73.91M729,-74.48C728.11,-75.43 728.16,-76.93 729.1,-77.82C730.06,-78.7 731.55,-78.66 732.44,-77.7C733.34,-76.77 733.3,-75.26 732.34,-74.38C731.89,-73.95 731.31,-73.73 730.72,-73.73L730.71,-73.73C730.08,-73.73 729.46,-73.98 729,-74.48M665.61,-83.83C663.5,-86.04 663.6,-89.59 665.86,-91.73C668.11,-93.85 671.66,-93.74 673.76,-91.49C675.87,-89.24 675.79,-85.7 673.53,-83.58C672.45,-82.56 671.07,-82.06 669.7,-82.06C668.2,-82.06 666.72,-82.65 665.61,-83.83M715.35,-84.04C714.14,-85.31 714.2,-87.33 715.47,-88.52C716.76,-89.73 718.76,-89.66 719.96,-88.38C721.16,-87.12 721.11,-85.12 719.83,-83.91C719.22,-83.33 718.43,-83.04 717.65,-83.04C716.81,-83.05 715.97,-83.38 715.35,-84.04M681.93,-88.85C680.05,-90.84 680.14,-94.01 682.15,-95.87C684.17,-97.77 687.3,-97.68 689.17,-95.68C691.06,-93.69 690.98,-90.53 688.98,-88.65C688.02,-87.74 686.8,-87.29 685.57,-87.29C684.23,-87.3 682.91,-87.82 681.93,-88.85M699.23,-89.1C697.76,-90.66 697.83,-93.14 699.4,-94.63C700.98,-96.12 703.46,-96.02 704.94,-94.46C706.42,-92.9 706.36,-90.41 704.78,-88.93C704.02,-88.22 703.05,-87.87 702.1,-87.87C701.05,-87.87 700,-88.28 699.23,-89.1" style="fill:rgb(175,175,175);fill-rule:nonzero;"/>
    </g>
    <g id="path2964" transform="matrix(1.25,0,0,-1.25,-735.35,72.1562)">
        <path d="M699.5,33.55C697.16,33.08 695.65,30.84 696.12,28.49C696.59,26.17 698.85,24.66 701.18,25.12C703.51,25.59 705.02,27.85 704.55,30.18C704.14,32.23 702.35,33.64 700.34,33.64C700.08,33.63 699.79,33.6 699.5,33.55M681.67,32.37C679.84,32.09 678.57,30.4 678.83,28.56C679.11,26.72 680.82,25.46 682.65,25.73C684.48,26 685.76,27.7 685.49,29.54C685.25,31.21 683.81,32.41 682.16,32.41C682,32.41 681.84,32.4 681.67,32.37M716.68,29.91C713.9,29.2 712.2,26.37 712.92,23.57C713.64,20.79 716.48,19.09 719.26,19.81C722.04,20.52 723.73,23.37 723.02,26.14C722.41,28.51 720.3,30.06 717.97,30.06C717.56,30.07 717.12,30.02 716.68,29.91M663.43,26.96C661.84,26.28 661.1,24.45 661.79,22.85C662.47,21.27 664.32,20.54 665.9,21.22C667.48,21.9 668.23,23.75 667.54,25.32C667.03,26.51 665.88,27.21 664.67,27.21C664.27,27.22 663.84,27.13 663.43,26.96M731.91,22.2C728.49,21.13 726.56,17.5 727.64,14.06C728.7,10.64 732.36,8.73 735.78,9.8C739.21,10.87 741.11,14.52 740.04,17.94C739.17,20.72 736.62,22.5 733.86,22.5C733.22,22.5 732.56,22.4 731.91,22.2M646.97,17.41C645.52,16.26 645.27,14.15 646.42,12.69C647.58,11.23 649.7,10.99 651.14,12.14C652.6,13.3 652.86,15.4 651.7,16.86C651.03,17.7 650.06,18.13 649.07,18.13C648.33,18.13 647.59,17.89 646.97,17.41M744.42,10.07C740.7,8.69 738.8,4.59 740.18,0.86C741.56,-2.86 745.68,-4.75 749.38,-3.38C753.09,-2.01 754.99,2.12 753.62,5.83C752.54,8.73 749.81,10.51 746.91,10.51C746.08,10.52 745.24,10.37 744.42,10.07M633.89,5.25C631.95,3.87 631.48,1.21 632.86,-0.75C634.24,-2.68 636.92,-3.14 638.85,-1.77C640.79,-0.39 641.25,2.3 639.88,4.22C639.04,5.41 637.71,6.04 636.37,6.04C635.52,6.04 634.65,5.79 633.89,5.25M753.13,-5.12C749.17,-6.83 747.34,-11.39 749.05,-15.36C750.75,-19.31 755.34,-21.14 759.29,-19.44C763.24,-17.73 765.07,-13.14 763.36,-9.19C762.09,-6.24 759.22,-4.48 756.21,-4.48C755.18,-4.48 754.13,-4.69 753.13,-5.12M624.73,-9.73C622.31,-11.27 621.57,-14.48 623.12,-16.92C624.65,-19.35 627.88,-20.08 630.3,-18.55C632.74,-17.01 633.46,-13.78 631.92,-11.34C630.93,-9.77 629.25,-8.92 627.52,-8.92C626.57,-8.92 625.6,-9.19 624.73,-9.73M758,-23.35C754.46,-25.1 753,-29.4 754.76,-32.94C756.53,-36.51 760.82,-37.94 764.36,-36.18C767.9,-34.43 769.36,-30.15 767.6,-26.59C766.35,-24.07 763.8,-22.61 761.16,-22.61C760.1,-22.61 759.02,-22.85 758,-23.35M619.89,-26.12C616.76,-27.87 615.65,-31.82 617.41,-34.96C619.16,-38.08 623.12,-39.2 626.25,-37.44C629.38,-35.69 630.49,-31.72 628.73,-28.59C627.54,-26.47 625.34,-25.28 623.07,-25.28C622,-25.28 620.9,-25.54 619.89,-26.12M758.24,-42.29C755.12,-44.04 754,-48.01 755.76,-51.14C757.52,-54.28 761.48,-55.37 764.6,-53.61C767.73,-51.85 768.85,-47.91 767.08,-44.77C765.89,-42.65 763.69,-41.45 761.42,-41.45C760.35,-41.45 759.25,-41.73 758.24,-42.29M620.14,-43.54C616.61,-45.28 615.13,-49.57 616.9,-53.13C618.66,-56.68 622.97,-58.12 626.51,-56.37C630.05,-54.62 631.51,-50.32 629.75,-46.78C628.49,-44.24 625.98,-42.79 623.35,-42.79C622.26,-42.79 621.16,-43.03 620.14,-43.54M625.22,-60.29C621.27,-61.99 619.43,-66.56 621.14,-70.54C622.84,-74.5 627.45,-76.31 631.39,-74.61C635.34,-72.9 637.16,-68.31 635.45,-64.36C634.18,-61.41 631.31,-59.66 628.3,-59.66C627.27,-59.65 626.22,-59.85 625.22,-60.29M754.2,-61.18C751.77,-62.73 751.04,-65.94 752.58,-68.37C754.12,-70.81 757.34,-71.52 759.77,-69.99C762.19,-68.45 762.93,-65.25 761.38,-62.8C760.39,-61.23 758.69,-60.38 756.97,-60.38C756.02,-60.37 755.06,-60.63 754.2,-61.18M635.11,-76.35C631.41,-77.73 629.5,-81.85 630.88,-85.55C632.26,-89.29 636.39,-91.16 640.08,-89.78C643.8,-88.4 645.7,-84.31 644.32,-80.57C643.25,-77.69 640.51,-75.9 637.6,-75.9C636.77,-75.9 635.93,-76.05 635.11,-76.35M745.64,-77.96C743.7,-79.34 743.24,-82.02 744.61,-83.96C746,-85.91 748.67,-86.36 750.62,-84.99C752.55,-83.62 753.01,-80.94 751.63,-78.98C750.79,-77.8 749.46,-77.17 748.11,-77.17C747.26,-77.17 746.39,-77.42 745.64,-77.96M648.72,-89.53C645.3,-90.59 643.39,-94.23 644.47,-97.66C645.54,-101.11 649.17,-103 652.59,-101.92C656.02,-100.86 657.94,-97.23 656.87,-93.8C656,-91.02 653.43,-89.23 650.66,-89.23C650.01,-89.23 649.36,-89.33 648.72,-89.53M733.36,-91.86C731.91,-93.02 731.66,-95.13 732.81,-96.58C733.96,-98.05 736.08,-98.27 737.53,-97.13C738.99,-95.97 739.24,-93.87 738.08,-92.4C737.42,-91.56 736.44,-91.13 735.45,-91.13C734.72,-91.14 733.98,-91.37 733.36,-91.86M665.24,-99.55C662.46,-100.26 660.78,-103.09 661.49,-105.88C662.2,-108.69 665.03,-110.35 667.82,-109.64C670.61,-108.92 672.3,-106.11 671.59,-103.31C670.99,-100.95 668.87,-99.39 666.54,-99.39C666.11,-99.39 665.68,-99.43 665.24,-99.55M718.59,-100.95C717.01,-101.62 716.27,-103.47 716.96,-105.05C717.65,-106.65 719.49,-107.37 721.07,-106.69C722.66,-106.01 723.4,-104.16 722.71,-102.57C722.2,-101.39 721.04,-100.68 719.83,-100.68C719.42,-100.69 719.01,-100.77 718.59,-100.95M683.31,-104.84C680.98,-105.31 679.47,-107.58 679.94,-109.9C680.41,-112.24 682.68,-113.75 685.01,-113.28C687.33,-112.8 688.85,-110.55 688.38,-108.2C687.97,-106.16 686.17,-104.75 684.16,-104.75C683.88,-104.75 683.6,-104.78 683.31,-104.84M701.85,-105.45C700.02,-105.72 698.75,-107.43 699.02,-109.27C699.29,-111.11 701,-112.37 702.83,-112.1C704.67,-111.83 705.95,-110.13 705.67,-108.29C705.43,-106.61 703.98,-105.41 702.33,-105.41C702.18,-105.41 702.01,-105.42 701.85,-105.45" style="fill:rgb(175,175,175);fill-rule:nonzero;"/>
    </g>
    <g id="path2986" transform="matrix(1.25,0,0,-1.25,-735.35,72.1562)">
        <path d="M688.24,49.34C688.24,47.12 690.04,45.33 692.24,45.33C694.46,45.33 696.26,47.12 696.26,49.34C696.26,51.57 694.46,53.34 692.24,53.34C690.04,53.34 688.24,51.57 688.24,49.34M711.18,47.42C710.56,45.11 711.93,42.76 714.22,42.15C716.52,41.53 718.89,42.89 719.5,45.19C720.12,47.49 718.74,49.84 716.44,50.46C716.07,50.56 715.69,50.61 715.32,50.61C713.43,50.6 711.7,49.34 711.18,47.42M668.05,50.45C665.76,49.84 664.38,47.49 665,45.19C665.61,42.89 667.99,41.53 670.27,42.15C672.57,42.76 673.94,45.12 673.33,47.43C672.81,49.35 671.08,50.61 669.18,50.61C668.81,50.6 668.43,50.56 668.05,50.45M731.47,38.56C730.84,35.58 732.74,32.65 735.71,32.02C738.69,31.39 741.61,33.29 742.25,36.25C742.89,39.25 740.98,42.16 738.01,42.78C737.62,42.86 737.23,42.9 736.84,42.9C734.3,42.91 732.02,41.15 731.47,38.56M646.49,42.79C643.52,42.16 641.61,39.25 642.24,36.25C642.87,33.28 645.8,31.38 648.77,32.02C651.75,32.65 653.65,35.58 653.02,38.56C652.47,41.15 650.19,42.91 647.65,42.91C647.27,42.91 646.88,42.88 646.49,42.79M748.74,24.26C748.16,20.62 750.65,17.19 754.29,16.61C757.91,16.03 761.35,18.53 761.92,22.17C762.5,25.83 760,29.22 756.38,29.81C756.02,29.86 755.67,29.89 755.32,29.89C752.09,29.89 749.26,27.56 748.74,24.26M628.13,29.81C624.5,29.23 622.01,25.84 622.59,22.18C623.16,18.54 626.58,16.05 630.22,16.62C633.87,17.2 636.36,20.63 635.78,24.27C635.26,27.57 632.42,29.9 629.2,29.9C628.84,29.89 628.49,29.87 628.13,29.81M761.22,5.61C760.74,1.04 764.07,-3.06 768.63,-3.54C773.21,-4.02 777.3,-0.7 777.77,3.87C778.25,8.46 774.94,12.54 770.37,13.02C770.07,13.05 769.78,13.06 769.49,13.06C765.3,13.06 761.67,9.9 761.22,5.61M614.13,13.02C609.55,12.54 606.24,8.46 606.73,3.87C607.21,-0.7 611.29,-4.02 615.87,-3.54C620.44,-3.06 623.76,1.04 623.28,5.61C622.83,9.9 619.22,13.06 615.02,13.06C614.72,13.06 614.42,13.06 614.13,13.02M769.28,-16.28C769.02,-21.34 772.9,-25.66 777.95,-25.93C783.02,-26.19 787.35,-22.31 787.61,-17.24C787.88,-12.16 783.97,-7.87 778.93,-7.6C778.76,-7.59 778.59,-7.59 778.43,-7.59C773.58,-7.59 769.54,-11.36 769.28,-16.28M605.57,-7.61C600.54,-7.87 596.63,-12.16 596.89,-17.25C597.16,-22.31 601.49,-26.2 606.55,-25.94C611.61,-25.67 615.49,-21.35 615.23,-16.29C614.97,-11.37 610.93,-7.6 606.07,-7.6C605.91,-7.59 605.73,-7.6 605.57,-7.61M771.47,-39.85C771.47,-45.37 775.93,-49.85 781.44,-49.85C786.96,-49.85 791.43,-45.37 791.43,-39.86C791.43,-34.31 786.96,-29.88 781.46,-29.88C775.93,-29.88 771.47,-34.31 771.47,-39.85M593.06,-39.86C593.06,-45.37 597.55,-49.85 603.06,-49.85C608.56,-49.85 613.02,-45.37 613.02,-39.85C613.02,-34.31 608.56,-29.89 603.06,-29.89C597.55,-29.88 593.06,-34.31 593.06,-39.86M777.94,-53.79C772.9,-54.05 769.01,-58.37 769.27,-63.43C769.53,-68.52 773.85,-72.37 778.92,-72.11C783.96,-71.85 787.86,-67.57 787.6,-62.47C787.35,-57.58 783.28,-53.78 778.43,-53.78C778.26,-53.78 778.1,-53.78 777.94,-53.79M596.9,-62.47C596.64,-67.57 600.54,-71.85 605.58,-72.11C610.65,-72.37 614.97,-68.53 615.24,-63.43C615.51,-58.37 611.62,-54.05 606.56,-53.79C606.4,-53.78 606.24,-53.78 606.08,-53.78C601.22,-53.78 597.15,-57.58 596.9,-62.47M768.63,-76.19C764.07,-76.67 760.74,-80.77 761.22,-85.34C761.7,-89.93 765.81,-93.22 770.37,-92.74C774.94,-92.26 778.26,-88.19 777.77,-83.6C777.32,-79.32 773.72,-76.15 769.51,-76.15C769.22,-76.14 768.92,-76.15 768.63,-76.19M606.73,-83.59C606.25,-88.18 609.56,-92.25 614.13,-92.73C618.7,-93.21 622.8,-89.92 623.27,-85.33C623.75,-80.76 620.43,-76.66 615.86,-76.18C615.56,-76.14 615.27,-76.13 614.98,-76.13C610.78,-76.14 607.18,-79.32 606.73,-83.59M754.29,-96.35C750.65,-96.93 748.15,-100.34 748.74,-103.99C749.32,-107.65 752.74,-110.11 756.38,-109.54C760.01,-108.96 762.51,-105.57 761.92,-101.9C761.4,-98.61 758.55,-96.27 755.33,-96.27C754.99,-96.26 754.64,-96.29 754.29,-96.35M622.59,-101.89C622.01,-105.56 624.49,-108.95 628.13,-109.53C631.78,-110.11 635.19,-107.65 635.78,-103.98C636.36,-100.34 633.87,-96.93 630.22,-96.35C629.87,-96.29 629.51,-96.27 629.17,-96.27C625.94,-96.27 623.11,-98.61 622.59,-101.89M735.71,-111.74C732.73,-112.37 730.83,-115.3 731.47,-118.28C732.1,-121.27 735.03,-123.16 738.01,-122.53C740.98,-121.9 742.89,-118.98 742.25,-115.98C741.7,-113.4 739.41,-111.62 736.86,-111.62C736.49,-111.62 736.1,-111.66 735.71,-111.74M642.25,-115.98C641.61,-118.98 643.52,-121.89 646.49,-122.53C649.46,-123.16 652.39,-121.26 653.02,-118.28C653.65,-115.31 651.75,-112.37 648.78,-111.74C648.4,-111.66 648.01,-111.62 647.64,-111.62C645.09,-111.62 642.8,-113.4 642.25,-115.98M714.22,-121.87C711.93,-122.49 710.56,-124.85 711.17,-127.15C711.79,-129.44 714.15,-130.8 716.44,-130.18C718.74,-129.57 720.12,-127.22 719.5,-124.91C718.99,-122.99 717.24,-121.72 715.33,-121.72C714.97,-121.72 714.6,-121.76 714.22,-121.87M665,-124.91C664.39,-127.21 665.76,-129.56 668.05,-130.17C670.35,-130.79 672.71,-129.43 673.33,-127.13C673.94,-124.84 672.58,-122.48 670.27,-121.86C669.9,-121.76 669.53,-121.71 669.16,-121.71C667.27,-121.72 665.52,-122.98 665,-124.91M688.24,-129.07C688.24,-131.29 690.04,-133.07 692.24,-133.07C694.46,-133.07 696.26,-131.29 696.26,-129.06C696.26,-126.85 694.46,-125.06 692.24,-125.06C690.04,-125.06 688.24,-126.85 688.24,-129.07" style="fill:rgb(175,175,175);fill-rule:nonzero;"/>
    </g>
</svg>
