<?xml version="1.0" encoding="UTF-8" standalone="no"?>
<!DOCTYPE svg PUBLIC "-//W3C//DTD SVG 1.1//EN" "http://www.w3.org/Graphics/SVG/1.1/DTD/svg11.dtd">
<svg width="100%" height="100%" viewBox="0 0 1000 332" version="1.1" xmlns="http://www.w3.org/2000/svg" xmlns:xlink="http://www.w3.org/1999/xlink" xml:space="preserve" xmlns:serif="http://www.serif.com/" style="fill-rule:evenodd;clip-rule:evenodd;stroke-linejoin:round;stroke-miterlimit:2;">
    <g id="Layer-1" serif:id="Layer 1" transform="matrix(1,0,0,1,515.003,531.788)">
        <g id="path254" transform="matrix(0.232192,0,0,0.232192,-515.003,-531.788)">
            <path d="M4230.95,1017.9L3928.59,1017.9L3928.59,640.894L3853,640.894L3853,1017.9L3550.64,1017.9L3550.64,75.591L3853,75.591L3853,339.326L4079.77,339.326L4230.95,490.129L4230.95,1017.9M3475.43,640.894L3173.06,640.894L3173.06,716.485L3475.43,716.485L3475.43,1018.09L3022.11,1018.09L2870.93,867.288L2870.93,490.129L3022.11,339.326L3475.43,339.326L3475.43,640.894M2795.45,640.894L2530.89,640.894L2530.89,716.485L2795.45,716.485L2795.45,1018.09L2379.93,1018.09L2228.75,867.288L2228.75,75.591L2531.11,75.591L2531.11,339.326L2795.68,339.326L2795.45,640.894M2153.27,263.924L1850.91,263.924L1850.91,75.591L2153.27,75.591L2153.27,263.924M2153.27,1017.9L1850.91,1017.9L1850.91,339.326L2153.27,339.326L2153.27,1017.9M1775.32,1017.9L868.876,1017.9L717.694,867.099L717.694,339.326L1020.06,339.326L1020.06,716.296L1095.65,716.296L1095.65,339.326L1398.01,339.326L1398.01,716.296L1473.6,716.296L1473.6,339.326L1775.96,339.326L1775.32,1017.9M642.217,640.894L377.953,640.894L377.953,716.485L642.52,716.485L642.52,1018.09L226.772,1018.09L75.591,867.288L75.591,75.591L377.953,75.591L377.953,339.326L642.52,339.326L642.217,640.894M4117.64,263.924L3928.67,263.924L3928.67,0L3514.02,0L3323.26,263.924L2984.35,263.924L2870.97,377.008L2870.97,263.924L2606.4,263.924L2606.4,0L1775.51,0L1775.51,263.924L606.312,263.924L415.748,0L0,0L0,904.819L528.869,1432.44L1057.74,1432.44L1057.74,1281.64L1208.92,1432.44L2228.83,1432.44L2228.83,1281.64L2380.01,1432.44L2871.01,1432.44L2871.01,1281.64L3022.19,1432.44L3966.61,1432.44L4306.77,1093.12L4306.77,452.409L4117.64,263.924" style="fill:rgb(175,175,175);fill-rule:nonzero;"/>
        </g>
        <g id="path260" transform="matrix(0.232192,0,0,0.232192,-515.003,-531.788)">
            <path d="M3550.98,1017.9L3853.19,1017.9L3853.19,640.894L3928.74,640.894L3928.74,1017.9L4230.95,1017.9L4230.95,490.129L4079.85,339.326L3853.19,339.326L3853.19,75.439L3550.98,75.439L3550.98,1017.9M2228.83,867.099L2379.89,1017.9L2795.45,1017.9L2795.45,716.296L2531.04,716.296L2531.04,640.894L2795.45,640.894L2795.45,339.326L2531.04,339.326L2531.04,75.439L2228.83,75.439L2228.83,867.099M2871.01,867.099L3022.11,1017.9L3475.43,1017.9L3475.43,716.296L3173.22,716.296L3173.22,640.894L3475.43,640.894L3475.43,339.326L3022.11,339.326L2871.01,490.129L2871.01,867.099M1851.06,75.439L2153.27,75.439L2153.27,263.924L1851.06,263.924L1851.06,75.439M642.217,339.326L377.764,339.326L377.764,75.439L75.553,75.439L75.553,867.099L226.658,1017.9L642.217,1017.9L642.217,716.296L377.764,716.296L377.764,640.894L642.217,640.894L642.217,339.326M717.77,867.099L868.838,1017.9L1775.51,1017.9L1775.51,339.326L1473.3,339.326L1473.3,716.296L1397.71,716.296L1397.71,339.326L1095.53,339.326L1095.53,716.296L1019.98,716.296L1019.98,339.326L717.77,339.326L717.77,867.099M1851.06,339.326L2153.27,339.326L2153.27,1017.9L1851.06,1017.9L1851.06,339.326" style="fill:white;fill-rule:nonzero;"/>
        </g>
    </g>
</svg>
