<?xml version="1.0" encoding="UTF-8" standalone="no"?>
<!DOCTYPE svg PUBLIC "-//W3C//DTD SVG 1.1//EN" "http://www.w3.org/Graphics/SVG/1.1/DTD/svg11.dtd">
<svg width="100%" height="100%" viewBox="0 0 1000 123" version="1.1" xmlns="http://www.w3.org/2000/svg" xmlns:xlink="http://www.w3.org/1999/xlink" xml:space="preserve" xmlns:serif="http://www.serif.com/" style="fill-rule:evenodd;clip-rule:evenodd;stroke-linejoin:round;stroke-miterlimit:2;">
    <path id="path1072" d="M939.911,51.505L935.188,40.897C944.903,35.107 956.042,32.134 967.35,32.312C989.392,32.312 1000,44.42 1000,66.987L1000,121.528L989.204,121.528L988.042,111.744C979.571,118.962 968.878,123.064 957.754,123.365C940.923,123.365 930.314,113.094 930.314,97.95C930.314,81.306 940.923,70.848 962.627,70.848L987.517,70.848L987.517,67.999C987.517,52.33 980.62,43.933 965.326,43.933C956.335,44.171 947.566,46.784 939.911,51.505ZM987.517,81.493L963.114,81.493C949.657,81.493 942.947,87.041 942.947,96.488C942.947,105.934 950.182,111.782 960.79,111.782C970.692,111.486 980.172,107.671 987.517,101.023L987.517,81.493ZM696.817,121.528L680.961,27.814L647.637,121.528L638.04,121.528L604.866,27.589L588.859,121.528L575.552,121.528L596.469,3.749L609.439,3.749L642.913,101.698L676.238,3.749L689.208,3.749L710.125,121.565L696.817,121.528ZM790.944,115.305C781.56,120.636 770.921,123.367 760.13,123.215C733.891,123.215 717.21,104.697 717.21,77.745C717.21,52.33 733.891,32.312 757.094,32.312C780.298,32.312 794.13,50.306 794.13,72.872C794.13,76.058 794.13,79.282 793.792,82.468L730.067,82.468C732.054,100.311 743.524,111.932 761.18,111.932C770.031,111.771 778.727,109.577 786.595,105.522L790.944,115.305ZM781.347,71.522L781.347,70.848C781.347,55.366 772.276,43.596 757.282,43.596C742.287,43.596 732.354,55.553 730.18,71.522L781.347,71.522ZM884.17,0L884.17,121.34L873.412,121.34L872.212,112.456C864.262,119.45 854.011,123.28 843.423,123.215C819.845,123.215 806.725,102.673 806.725,77.932C806.725,52.517 821.719,32.312 845.597,32.312C855.058,32.299 864.272,35.366 871.837,41.047L871.837,0L884.17,0ZM845.972,111.744C855.436,111.443 864.496,107.804 871.537,101.473L871.537,53.192C864.961,47.277 856.499,43.876 847.659,43.596C829.966,43.596 819.358,58.065 819.358,77.932C819.358,96.6 828.616,111.744 845.972,111.744ZM915.395,32.65L915.395,121.528L902.763,121.528L902.763,32.65L915.395,32.65ZM81.456,47.457C80.106,55.216 78.082,63.8 76.92,68.823L64.138,121.528L34.149,121.528L0,3.749L27.589,3.749L43.596,62.601C44.758,67.811 46.969,76.733 48.656,84.155L68.149,3.749L94.576,3.749L114.293,84.192C116.13,76.695 118.304,67.849 119.504,62.638L135.135,3.749L162.762,3.749L129.025,121.565L99.037,121.565L85.992,68.823C84.83,63.725 82.805,55.216 81.456,47.457ZM322.075,32.65L343.929,32.65L345.616,41.909C349.439,38.283 353.883,35.375 358.736,33.325C363.509,31.45 368.604,30.533 373.73,30.626C381.965,30.15 389.96,33.584 395.284,39.885C400.345,46.107 402.781,54.879 402.781,66.124L402.781,121.528L377.704,121.528L377.704,67.661C378.022,63.566 376.82,59.494 374.33,56.228C371.509,53.423 367.563,52.043 363.609,52.48C357.512,52.659 351.67,54.982 347.115,59.04L347.115,121.528L322.075,121.528L322.075,32.65ZM488.061,97.462L495.783,114.481C485.337,120.818 473.285,124.02 461.071,123.702C434.832,123.702 416.089,104.172 416.089,77.07C416.089,51.13 433.445,30.776 459.01,30.776C483.6,30.776 498.894,48.131 498.894,74.371C498.894,77.745 498.894,82.281 498.557,84.792L440.829,84.792C443.041,97.087 451.288,102.973 465.082,102.973C473.062,102.918 480.924,101.033 488.061,97.462ZM440.754,68.336L475.766,68.336L475.766,67.511C475.803,62.896 474.195,58.416 471.23,54.879C468.168,51.54 463.801,49.691 459.272,49.818C454.651,49.724 450.193,51.559 446.977,54.879C443.573,58.679 441.402,63.425 440.754,68.486L440.754,68.336ZM307.756,32.537C306.675,32.39 305.585,32.315 304.495,32.312C294.174,32.347 284.291,36.538 277.093,43.933L275.406,32.687L253.514,32.687L253.514,121.528L278.592,121.528L278.592,60.764C284.818,56.937 291.976,54.888 299.284,54.841C302.122,54.824 304.956,55.049 307.756,55.516L307.756,32.537ZM566.406,55.516L566.743,55.516L570.829,33.737L569.554,33.325C567.466,32.82 565.33,32.544 563.182,32.5C552.85,32.529 542.953,36.72 535.742,44.12L534.056,32.875L512.164,32.875L512.164,121.528L537.242,121.528L537.242,60.764C543.479,56.93 550.65,54.881 557.971,54.841C560.847,54.825 563.718,55.051 566.555,55.516L566.406,55.516ZM908.835,0L908.835,0C904.394,0 900.738,3.655 900.738,8.097C900.738,12.539 904.394,16.194 908.835,16.194C913.277,16.194 916.932,12.539 916.932,8.097C916.932,3.655 913.277,0 908.835,0ZM200.81,30.626C189.056,30.642 177.436,33.119 166.698,37.898L171.496,57.503C179.373,53.901 187.913,51.974 196.574,51.842C207.52,51.842 213.255,56.228 213.255,67.661L213.255,68.486L196.236,68.486C171.496,68.486 160.213,78.42 160.213,96.45C160.213,112.606 171.833,123.702 189.339,123.702C199.291,123.745 208.884,119.943 216.104,113.094L217.641,121.528L238.145,121.528L238.145,66.124C238.145,43.408 224.688,30.626 200.81,30.626ZM213.255,99.112C208.55,102.478 203.015,104.5 197.249,104.959C189.751,104.959 185.291,100.761 185.291,94.688C185.291,88.616 189.676,84.605 197.923,84.605L213.255,84.605L213.255,99.112Z" style="fill:rgb(175,175,175);fill-rule:nonzero;"/>
</svg>
