<svg
   xmlns:dc="http://purl.org/dc/elements/1.1/"
   xmlns:cc="http://creativecommons.org/ns#"
   xmlns:rdf="http://www.w3.org/1999/02/22-rdf-syntax-ns#"
   xmlns:svg="http://www.w3.org/2000/svg"
   xmlns="http://www.w3.org/2000/svg"
   xmlns:sodipodi="http://sodipodi.sourceforge.net/DTD/sodipodi-0.dtd"
   xmlns:inkscape="http://www.inkscape.org/namespaces/inkscape"
   id="Layer_1"
   data-name="Layer 1"
   viewBox="0 0 1000 123.72362"
   version="1.1"
   sodipodi:docname="Warnermedialogo.svg"
   width="1000"
   height="123.72362"
   inkscape:version="0.92.4 (5da689c313, 2019-01-14)">
  <metadata
     id="metadata1077">
    <rdf:RDF>
      <cc:Work
         rdf:about="">
        <dc:format>image/svg+xml</dc:format>
        <dc:type
           rdf:resource="http://purl.org/dc/dcmitype/StillImage" />
        <dc:title>660880_WarnerMedia_Logo2</dc:title>
      </cc:Work>
    </rdf:RDF>
  </metadata>
  <sodipodi:namedview
     pagecolor="#ffffff"
     bordercolor="#666666"
     borderopacity="1"
     objecttolerance="10"
     gridtolerance="10"
     guidetolerance="10"
     inkscape:pageopacity="0"
     inkscape:pageshadow="2"
     inkscape:window-width="1920"
     inkscape:window-height="1017"
     id="namedview1075"
     showgrid="false"
     fit-margin-top="0"
     fit-margin-left="0"
     fit-margin-right="0"
     fit-margin-bottom="0"
     inkscape:zoom="1.1033333"
     inkscape:cx="619.4864"
     inkscape:cy="26.475538"
     inkscape:window-x="1912"
     inkscape:window-y="-8"
     inkscape:window-maximized="1"
     inkscape:current-layer="Layer_1" />
  <defs
     id="defs1068">
    <style
       id="style1066">.cls-1{fill:#1e1e1e;}</style>
  </defs>
  <title
     id="title1070">660880_WarnerMedia_Logo2</title>
  <path
     class="cls-1"
     d="m 939.91078,51.505042 -4.72317,-10.608389 a 60.951381,60.951381 0 0 1 32.16254,-8.584174 c 22.04146,0 32.64985,12.107809 32.64985,34.674064 v 54.541367 h -10.79582 l -1.16205,-9.78371 a 48.731117,48.731117 0 0 1 -30.28826,11.6205 c -16.83098,0 -27.43937,-10.27102 -27.43937,-25.415155 0,-16.643551 10.60839,-27.101998 32.31248,-27.101998 h 24.89036 v -2.848896 c 0,-15.668928 -6.89733,-24.065675 -22.1914,-24.065675 a 50.980245,50.980245 0 0 0 -25.41516,7.572066 z m 47.60656,29.98838 h -24.40305 c -13.45728,0 -20.16718,5.54785 -20.16718,14.994189 0,9.446339 7.23469,15.294079 17.84308,15.294079 a 41.683848,41.683848 0 0 0 26.72715,-10.75834 z M 696.81748,121.52791 680.96113,27.814222 647.63654,121.52791 h -9.59628 l -33.17465,-93.9386 -16.00629,93.9386 H 575.55197 L 596.46887,3.748548 h 12.96997 l 33.47453,97.949542 33.32459,-97.949542 h 12.96997 l 20.9169,117.816842 z m 94.12603,-6.22259 a 60.651498,60.651498 0 0 1 -30.81306,7.90944 c -26.23983,0 -42.92087,-18.51783 -42.92087,-45.469886 0,-25.415151 16.68104,-45.432395 39.88455,-45.432395 23.2035,0 37.03564,17.993028 37.03564,40.559284 0,3.186265 0,6.410016 -0.33736,9.596281 H 730.0671 c 1.98673,17.843086 13.45728,29.463586 31.11294,29.463586 a 57.765116,57.765116 0 0 0 25.41515,-6.41002 z m -9.59628,-43.783035 v -0.674738 c 0,-15.481501 -9.07149,-27.25194 -24.06568,-27.25194 -14.99419,0 -24.92784,11.957866 -27.10199,27.926678 z M 884.16988,0 v 121.34048 h -10.75833 l -1.19953,-8.88406 a 43.183266,43.183266 0 0 1 -28.78885,10.75834 c -23.57836,0 -36.69828,-20.54204 -36.69828,-45.282458 0,-25.415152 14.99419,-45.619823 38.87244,-45.619823 a 43.595607,43.595607 0 0 1 26.23983,8.734116 V 0 Z m -38.19769,111.7442 a 40.146943,40.146943 0 0 0 25.56509,-10.27102 V 53.191889 a 37.485474,37.485474 0 0 0 -23.87825,-9.596282 c -17.69314,0 -28.30153,14.469393 -28.30153,34.336695 0,18.667766 9.25891,33.811898 26.61469,33.811898 z m 69.42309,-79.094351 v 88.878061 h -12.6326 V 32.649849 Z M 81.455936,47.456611 c -1.349477,7.759493 -3.373693,16.343667 -4.535743,21.36672 L 64.137647,121.52791 H 34.149267 L 0,3.748548 h 27.589309 l 16.006298,58.852195 c 1.162049,5.210481 3.373692,14.132023 5.060539,21.554147 L 68.148592,3.748548 h 26.42726 l 19.717358,80.443828 c 1.83679,-7.497095 4.01095,-16.343667 5.21048,-21.554148 l 15.63145,-58.88968 h 27.62679 L 129.025,121.56539 H 99.036623 L 85.991678,68.823331 C 84.829629,63.725307 82.805413,55.216104 81.455936,47.456611 Z M 322.0752,32.649849 h 21.85403 l 1.68684,9.258912 a 43.89549,43.89549 0 0 1 13.11992,-8.584174 39.09735,39.09735 0 0 1 14.99419,-2.698954 26.239832,26.239832 0 0 1 21.55415,9.258912 c 5.06054,6.222589 7.49709,14.99419 7.49709,26.239832 V 121.52791 H 377.70364 V 67.661282 a 16.718522,16.718522 0 0 0 -3.37369,-11.43307 13.157402,13.157402 0 0 0 -10.72085,-3.748547 25.939948,25.939948 0 0 0 -16.49361,6.559958 V 121.52791 H 322.0752 Z m 165.98568,64.812385 7.722,17.018406 a 63.725306,63.725306 0 0 1 -34.71155,9.22143 c -26.23983,0 -44.98256,-19.52994 -44.98256,-46.631934 0,-25.939949 17.35577,-46.294561 42.92086,-46.294561 24.59047,0 39.88455,17.355774 39.88455,43.595607 0,3.373692 0,7.909435 -0.33737,10.420961 h -57.72763 c 2.21164,12.295236 10.45845,18.180457 24.2531,18.180457 a 52.142295,52.142295 0 0 0 22.9786,-5.510366 z M 440.75421,68.33602 h 35.01143 V 67.51134 A 19.417476,19.417476 0 0 0 471.2299,54.878735 15.631443,15.631443 0 0 0 459.27203,49.818196 16.643551,16.643551 0 0 0 446.9768,54.878735 25.190239,25.190239 0 0 0 440.75421,68.485962 Z M 307.75574,32.537392 a 24.665442,24.665442 0 0 0 -3.26123,-0.224913 38.422611,38.422611 0 0 0 -27.40188,11.620497 l -1.68685,-11.245642 h -21.89152 v 88.840576 h 25.07779 V 60.763954 a 39.997001,39.997001 0 0 1 20.69198,-5.922705 49.668254,49.668254 0 0 1 8.47171,0.674739 z m 258.64978,22.978596 h 0.33737 l 4.08591,-21.779061 -1.2745,-0.41234 a 29.725981,29.725981 0 0 0 -6.37253,-0.82468 38.460097,38.460097 0 0 0 -27.43937,11.620497 l -1.68685,-11.245643 h -21.89151 v 88.653149 h 25.07778 V 60.763954 a 39.997001,39.997001 0 0 1 20.72947,-5.922705 51.280129,51.280129 0 0 1 8.58417,0.674739 z M 908.83533,0 A 8.0968625,8.0968625 0 1 0 916.93219,8.096863 8.0968625,8.0968625 0 0 0 908.83533,0 Z M 200.80969,30.625633 a 84.192375,84.192375 0 0 0 -34.11179,7.272182 l 4.79815,19.604903 a 62.600742,62.600742 0 0 1 25.07778,-5.660307 c 10.94576,0 16.68103,4.385801 16.68103,15.818871 v 0.82468 h -17.0184 c -24.74041,0 -36.02354,9.933651 -36.02354,27.964164 0,16.156244 11.62049,27.251944 29.12621,27.251944 a 38.647524,38.647524 0 0 0 26.76463,-10.60839 l 1.5369,8.43423 h 20.50456 V 66.124377 c 0,-22.716197 -13.45729,-35.498744 -37.33553,-35.498744 z m 12.44517,68.485962 a 31.862653,31.862653 0 0 1 -16.00629,5.847735 c -7.4971,0 -11.95787,-4.19837 -11.95787,-10.271021 0,-6.072647 4.3858,-10.083593 12.6326,-10.083593 h 15.33156 z"
     id="path1072"
     inkscape:connector-curvature="0"
     style="fill:#1e1e1e;stroke-width:3.74854755" />
</svg>
