<?xml version="1.0" encoding="UTF-8" standalone="no"?>
<!DOCTYPE svg PUBLIC "-//W3C//DTD SVG 1.1//EN" "http://www.w3.org/Graphics/SVG/1.1/DTD/svg11.dtd">
<svg width="100%" height="100%" viewBox="0 0 1687 370" version="1.1" xmlns="http://www.w3.org/2000/svg" xmlns:xlink="http://www.w3.org/1999/xlink" xml:space="preserve" xmlns:serif="http://www.serif.com/" style="fill-rule:evenodd;clip-rule:evenodd;stroke-linejoin:round;stroke-miterlimit:2;">
    <g transform="matrix(4.16667,0,0,4.16667,0,0)">
        <path d="M72.187,26.525C72.078,28.823 72.141,31.128 72.139,33.429L72.139,36.666C72.139,35.586 72.139,34.509 72.141,33.429C72.141,31.128 72.078,28.823 72.187,26.525Z" style="fill:rgb(75,168,167);fill-rule:nonzero;"/>
        <path d="M404.384,25.009C404.191,19.147 399.274,14.942 393.383,15.069C387.382,15.195 383.294,18.475 380.295,23.349C378.837,25.712 377.543,28.176 376.172,30.593C375.744,29.034 375.776,27.548 375.737,26.066C375.539,18.524 369.43,13.773 362.068,15.353C357.194,16.396 353.93,19.472 351.453,23.559C350.057,25.866 348.792,28.253 347.467,30.603C347.332,30.566 347.197,30.527 347.064,30.489L347.064,16.863L329.69,16.863L329.69,50.048C333.898,50.048 337.995,49.964 342.081,50.088C343.808,50.14 344.791,49.631 345.618,48.057C348.499,42.577 351.502,37.156 354.578,31.781C355.026,30.996 356.134,30.588 356.943,30.008C357.365,30.888 358.106,31.752 358.157,32.654C358.319,35.388 358.218,38.134 358.218,40.874L358.218,50.048C362.603,50.048 366.708,49.963 370.797,50.088C372.521,50.142 373.484,49.624 374.306,48.061C377.232,42.521 380.288,37.048 383.4,31.608C383.818,30.88 384.873,30.52 385.633,29.987C386.043,30.807 386.78,31.618 386.803,32.449C386.931,36.412 386.86,40.381 386.86,44.347L386.86,49.854L404.45,49.854C404.45,41.442 404.648,33.217 404.384,25.009Z" style="fill:rgb(75,168,167);fill-rule:nonzero;"/>
        <path d="M79.005,41.831C78.867,41.863 78.721,41.873 78.579,41.9C72.825,42.908 72.139,42.35 72.139,36.666L72.139,33.429C72.141,31.128 72.078,28.823 72.187,26.525C72.214,25.983 72.711,25.132 73.168,24.985C77.711,23.547 85.003,25.706 86.419,31.497C87.554,36.141 84.331,40.65 79.005,41.831ZM99.809,24.063C98.216,22.253 96.279,20.608 94.209,19.375C86.435,14.741 78.061,14.215 69.343,16.058C64.512,17.078 59.593,18.281 54.819,15.543L54.819,65.928L72.102,65.928L72.102,51.24C73.639,51.371 74.845,51.511 76.055,51.565C83.877,51.917 91.133,50.24 97.291,45.19C104.485,39.291 105.532,30.569 99.809,24.063Z" style="fill:rgb(75,168,167);fill-rule:nonzero;"/>
        <path d="M303.598,33.424C303.598,35.584 303.531,37.747 303.623,39.904C303.678,41.233 303.272,41.893 301.879,42.023C298.479,42.337 295.255,41.961 292.43,39.864C287.935,36.528 287.894,30.332 292.334,26.922C295.133,24.774 298.338,24.29 301.741,24.686C303.058,24.839 303.729,25.442 303.633,26.942C303.495,29.095 303.598,31.262 303.598,33.424ZM311.129,16.861C308.851,16.503 306.579,16.104 304.31,15.703C294.849,14.04 285.985,15.374 278.387,21.562C269.999,28.395 270.159,38.688 278.665,45.382C285.893,51.073 294.242,52.457 303.18,51.178C309.071,50.337 314.964,47.967 320.939,51.268L320.939,15.378C317.715,17.449 314.445,17.385 311.129,16.861Z" style="fill:rgb(75,168,167);fill-rule:nonzero;"/>
        <path d="M33.075,16.679C31.633,16.641 30.91,17.146 30.246,18.385C27.22,24.036 24.127,29.655 20.933,35.215C20.535,35.91 19.398,36.181 18.604,36.651C18.217,35.873 17.517,35.103 17.502,34.319C17.402,29.269 17.449,24.22 17.449,19.17L17.449,16.874L0.088,16.874C0.088,25.463 -0.161,33.902 0.178,42.318C0.403,47.9 5.542,51.856 11.245,51.629C15.525,51.46 19.117,49.733 21.776,46.44C23.481,44.332 24.788,41.893 26.237,39.575C26.97,38.4 27.623,37.168 28.311,35.962C28.466,36.014 28.618,36.066 28.771,36.118L28.771,49.917L46.054,49.917L46.054,16.715C41.573,16.715 37.32,16.781 33.075,16.679Z" style="fill:rgb(75,168,167);fill-rule:nonzero;"/>
        <path d="M240.695,38.041C243.476,37.568 246.242,37.11 249.01,36.624C251.758,36.141 254.499,35.629 257.221,35.135L257.221,31.521C254.34,31.03 251.569,30.572 248.805,30.087C246.066,29.602 243.338,29.089 240.526,28.575C243.983,22.312 256.87,21.715 264.66,29.181C266.264,27.145 267.858,25.125 269.491,23.057C269.108,22.633 268.801,22.236 268.434,21.895C258.243,12.416 237.497,12.874 227.717,22.785C221.173,29.414 221.396,38.706 228.575,44.636C238.041,52.454 248.812,53.271 260.151,49.659C263.736,48.517 266.888,46.553 269.533,43.672C267.826,41.524 266.238,39.52 264.632,37.496C256.633,45.307 242.993,44.071 240.695,38.041Z" style="fill:rgb(75,168,167);fill-rule:nonzero;"/>
        <path d="M170.067,0.389L152.522,0.389L152.522,16.818L147.039,16.818L147.039,26.294L152.589,26.294C152.589,30.425 152.538,34.313 152.6,38.191C152.691,43.759 156.281,48.739 161.432,49.54C165.718,50.204 170.136,50.023 174.587,50.223L174.587,41.819C173.791,41.819 173.013,42.051 172.531,41.767C171.648,41.249 170.301,40.459 170.267,39.728C170.057,35.295 170.163,30.846 170.163,26.208L178.851,26.208L178.851,16.665L170.067,16.665L170.067,0.389Z" style="fill:rgb(75,168,167);fill-rule:nonzero;"/>
        <path d="M142.728,31.059C137.849,26.887 132.902,22.796 127.985,18.671C126.071,17.069 124.154,15.468 122.13,13.773C115.175,25.898 108.371,37.763 101.324,50.048C104.657,50.048 107.53,49.955 110.394,50.088C111.845,50.156 112.578,49.61 113.252,48.394C115.666,44.061 118.19,39.789 120.773,35.325C123.462,37.65 126.092,39.786 128.557,42.098C130.228,43.668 129.828,45.595 127.857,46.411C127.415,46.596 126.939,46.696 126.087,46.955C126.477,47.953 126.602,49.357 127.17,49.568C131.016,51.006 134.947,52.45 139.147,51.128C143.259,49.835 145.925,47.003 146.895,42.842C147.999,38.112 146.353,34.159 142.728,31.059Z" style="fill:rgb(75,168,167);fill-rule:nonzero;"/>
        <path d="M217.146,16.021C214.939,15.235 212.296,14.976 209.985,15.345C206.395,15.92 202.928,17.281 199.385,18.216C195.728,19.179 191.993,19.778 188.321,18.483C186.631,17.885 185.129,16.765 183.51,15.864L183.51,49.909L201.001,49.909L201.001,47.448C201.001,40.238 201.031,33.024 200.975,25.815C200.966,24.344 201.408,23.437 202.918,23.263C204.339,23.097 205.247,23.299 205.554,25.15C206.275,29.546 209.944,32.472 214.194,32.435C218.155,32.401 221.824,29.454 222.655,25.642C223.518,21.657 221.418,17.544 217.146,16.021Z" style="fill:rgb(75,168,167);fill-rule:nonzero;"/>
        <path d="M100.698,83.506C100.037,83.848 98.577,84.19 96.731,84.19C91.852,84.19 88.889,81.135 88.889,76.462C88.889,71.402 92.399,68.347 97.095,68.347C98.942,68.347 100.265,68.734 100.835,69.031L100.219,71.265C99.489,70.946 98.486,70.672 97.21,70.672C94.087,70.672 91.829,72.632 91.829,76.326C91.829,79.7 93.813,81.865 97.187,81.865C98.326,81.865 99.512,81.637 100.242,81.296L100.698,83.506Z" style="fill:rgb(75,168,167);fill-rule:nonzero;"/>
        <rect x="102.91" y="67.777" width="2.827" height="16.185" style="fill:rgb(75,168,167);fill-rule:nonzero;"/>
        <path d="M114.651,78.537C112.668,78.491 110.775,78.924 110.775,80.611C110.775,81.706 111.482,82.208 112.371,82.208C113.488,82.208 114.309,81.478 114.56,80.68C114.628,80.474 114.651,80.247 114.651,80.064L114.651,78.537ZM115.016,83.962L114.833,82.731L114.765,82.731C114.081,83.598 112.918,84.213 111.482,84.213C109.248,84.213 107.994,82.594 107.994,80.908C107.994,78.104 110.479,76.69 114.583,76.713L114.583,76.531C114.583,75.801 114.286,74.593 112.326,74.593C111.231,74.593 110.091,74.935 109.339,75.414L108.792,73.59C109.613,73.088 111.049,72.61 112.804,72.61C116.36,72.61 117.386,74.867 117.386,77.283L117.386,81.296C117.386,82.298 117.432,83.279 117.546,83.962L115.016,83.962Z" style="fill:rgb(75,168,167);fill-rule:nonzero;"/>
        <path d="M120.351,76.44C120.351,74.935 120.329,73.864 120.26,72.861L122.699,72.861L122.79,74.981L122.882,74.981C123.429,73.408 124.729,72.61 125.914,72.61C126.188,72.61 126.347,72.632 126.575,72.678L126.575,75.323C126.347,75.277 126.096,75.231 125.754,75.231C124.409,75.231 123.497,76.097 123.246,77.351C123.201,77.602 123.155,77.899 123.155,78.217L123.155,83.962L120.351,83.962L120.351,76.44Z" style="fill:rgb(75,168,167);fill-rule:nonzero;"/>
        <path d="M128.468,83.962L128.468,72.861L131.294,72.861L131.294,83.962L128.468,83.962ZM131.454,69.76C131.454,70.604 130.838,71.265 129.858,71.265C128.923,71.265 128.308,70.604 128.308,69.76C128.308,68.894 128.946,68.233 129.881,68.233C130.838,68.233 131.431,68.894 131.454,69.76Z" style="fill:rgb(75,168,167);fill-rule:nonzero;"/>
        <path d="M137.518,69.692L137.518,72.861L140.185,72.861L140.185,74.958L137.518,74.958L137.518,79.859C137.518,81.204 137.883,81.911 138.954,81.911C139.433,81.911 139.798,81.842 140.048,81.774L140.094,83.916C139.684,84.077 138.954,84.19 138.064,84.19C137.039,84.19 136.173,83.848 135.648,83.279C135.056,82.64 134.782,81.637 134.782,80.178L134.782,74.958L133.187,74.958L133.187,72.861L134.782,72.861L134.782,70.353L137.518,69.692Z" style="fill:rgb(75,168,167);fill-rule:nonzero;"/>
        <path d="M144.221,72.861L146.227,78.81C146.455,79.495 146.683,80.337 146.843,80.976L146.911,80.976C147.093,80.337 147.299,79.517 147.504,78.788L149.236,72.861L152.245,72.861L149.464,80.429C147.937,84.578 146.911,86.424 145.589,87.564C144.494,88.544 143.355,88.91 142.647,89L142.01,86.629C142.488,86.516 143.081,86.265 143.651,85.855C144.175,85.512 144.791,84.851 145.179,84.099C145.292,83.894 145.36,83.735 145.36,83.598C145.36,83.484 145.338,83.324 145.201,83.05L141.144,72.861L144.221,72.861Z" style="fill:rgb(75,168,167);fill-rule:nonzero;"/>
        <path d="M152.521,82.413C152.521,81.364 153.25,80.611 154.253,80.611C155.278,80.611 155.985,81.34 155.985,82.413C155.985,83.438 155.301,84.213 154.253,84.213C153.227,84.213 152.521,83.438 152.521,82.413Z" style="fill:rgb(75,168,167);fill-rule:nonzero;"/>
        <path d="M165.855,75.96C166.197,76.052 166.653,76.075 167.224,76.075C169.321,76.075 170.598,75.049 170.598,73.248C170.598,71.539 169.412,70.626 167.475,70.626C166.699,70.626 166.152,70.695 165.855,70.763L165.855,75.96ZM163.074,68.802C164.078,68.621 165.469,68.484 167.36,68.484C169.412,68.484 170.917,68.916 171.897,69.737C172.809,70.49 173.401,71.698 173.401,73.134C173.401,74.593 172.945,75.801 172.079,76.622C170.962,77.739 169.207,78.263 167.224,78.263C166.699,78.263 166.221,78.241 165.855,78.172L165.855,83.962L163.074,83.962L163.074,68.802Z" style="fill:rgb(75,168,167);fill-rule:nonzero;"/>
        <path d="M181.997,77.238C182.02,76.211 181.564,74.525 179.694,74.525C177.962,74.525 177.232,76.097 177.119,77.238L181.997,77.238ZM177.119,79.198C177.188,81.204 178.76,82.07 180.538,82.07C181.838,82.07 182.772,81.888 183.616,81.569L184.026,83.506C183.068,83.894 181.746,84.19 180.15,84.19C176.549,84.19 174.429,81.979 174.429,78.583C174.429,75.504 176.298,72.61 179.855,72.61C183.456,72.61 184.642,75.573 184.642,78.012C184.642,78.537 184.596,78.947 184.551,79.198L177.119,79.198Z" style="fill:rgb(75,168,167);fill-rule:nonzero;"/>
        <path d="M186.899,76.44C186.899,74.935 186.876,73.864 186.808,72.861L189.247,72.861L189.338,74.981L189.43,74.981C189.977,73.408 191.276,72.61 192.462,72.61C192.735,72.61 192.895,72.632 193.123,72.678L193.123,75.323C192.895,75.277 192.644,75.231 192.302,75.231C190.957,75.231 190.045,76.097 189.794,77.351C189.749,77.602 189.703,77.899 189.703,78.217L189.703,83.962L186.899,83.962L186.899,76.44Z" style="fill:rgb(75,168,167);fill-rule:nonzero;"/>
        <path d="M194.879,81.386C195.517,81.774 196.725,82.184 197.729,82.184C198.959,82.184 199.505,81.683 199.505,80.954C199.505,80.201 199.05,79.813 197.683,79.334C195.517,78.583 194.605,77.397 194.628,76.097C194.628,74.137 196.246,72.61 198.822,72.61C200.053,72.61 201.125,72.929 201.762,73.271L201.215,75.254C200.737,74.981 199.848,74.616 198.868,74.616C197.865,74.616 197.317,75.094 197.317,75.779C197.317,76.485 197.842,76.827 199.255,77.329C201.261,78.058 202.196,79.083 202.218,80.725C202.218,82.731 200.646,84.19 197.705,84.19C196.36,84.19 195.152,83.872 194.331,83.416L194.879,81.386Z" style="fill:rgb(75,168,167);fill-rule:nonzero;"/>
        <path d="M207.326,79.312C207.326,79.585 207.349,79.837 207.417,80.087C207.69,81.227 208.694,82.047 209.879,82.047C211.657,82.047 212.706,80.566 212.706,78.377C212.706,76.416 211.749,74.821 209.947,74.821C208.785,74.821 207.714,75.665 207.44,76.895C207.372,77.124 207.326,77.375 207.326,77.602L207.326,79.312ZM204.522,76.553C204.522,75.094 204.477,73.909 204.431,72.861L206.893,72.861L207.029,74.57L207.075,74.57C207.897,73.316 209.195,72.61 210.883,72.61C213.436,72.61 215.556,74.798 215.556,78.263C215.556,82.276 213.025,84.213 210.495,84.213C209.105,84.213 207.941,83.621 207.372,82.731L207.326,82.731L207.326,88.476L204.522,88.476L204.522,76.553Z" style="fill:rgb(75,168,167);fill-rule:nonzero;"/>
        <path d="M224.722,77.238C224.744,76.211 224.289,74.525 222.419,74.525C220.687,74.525 219.957,76.097 219.844,77.238L224.722,77.238ZM219.844,79.198C219.912,81.204 221.484,82.07 223.263,82.07C224.563,82.07 225.497,81.888 226.341,81.569L226.751,83.506C225.793,83.894 224.471,84.19 222.875,84.19C219.273,84.19 217.153,81.979 217.153,78.583C217.153,75.504 219.022,72.61 222.579,72.61C226.181,72.61 227.366,75.573 227.366,78.012C227.366,78.537 227.32,78.947 227.275,79.198L219.844,79.198Z" style="fill:rgb(75,168,167);fill-rule:nonzero;"/>
        <path d="M237.785,83.621C237.192,83.894 236.029,84.19 234.639,84.19C231.174,84.19 228.917,81.979 228.917,78.537C228.917,75.208 231.196,72.61 235.095,72.61C236.121,72.61 237.169,72.837 237.808,73.134L237.307,75.231C236.851,75.026 236.189,74.798 235.187,74.798C233.043,74.798 231.767,76.372 231.789,78.4C231.789,80.68 233.272,81.979 235.187,81.979C236.166,81.979 236.851,81.774 237.397,81.546L237.785,83.621Z" style="fill:rgb(75,168,167);fill-rule:nonzero;"/>
        <path d="M243.416,69.692L243.416,72.861L246.083,72.861L246.083,74.958L243.416,74.958L243.416,79.859C243.416,81.204 243.781,81.911 244.853,81.911C245.331,81.911 245.696,81.842 245.946,81.774L245.992,83.916C245.582,84.077 244.853,84.19 243.963,84.19C242.938,84.19 242.071,83.848 241.547,83.279C240.954,82.64 240.681,81.637 240.681,80.178L240.681,74.958L239.085,74.958L239.085,72.861L240.681,72.861L240.681,70.353L243.416,69.692Z" style="fill:rgb(75,168,167);fill-rule:nonzero;"/>
        <path d="M248.205,83.962L248.205,72.861L251.031,72.861L251.031,83.962L248.205,83.962ZM251.191,69.76C251.191,70.604 250.575,71.265 249.596,71.265C248.661,71.265 248.045,70.604 248.045,69.76C248.045,68.894 248.684,68.233 249.618,68.233C250.575,68.233 251.168,68.894 251.191,69.76Z" style="fill:rgb(75,168,167);fill-rule:nonzero;"/>
        <path d="M255.818,72.861L257.62,78.491C257.939,79.471 258.167,80.361 258.372,81.272L258.44,81.272C258.646,80.361 258.897,79.495 259.191,78.491L260.948,72.861L263.912,72.861L259.672,83.962L256.913,83.962L252.787,72.861L255.818,72.861Z" style="fill:rgb(75,168,167);fill-rule:nonzero;"/>
        <path d="M272.189,77.238C272.211,76.211 271.756,74.525 269.886,74.525C268.153,74.525 267.424,76.097 267.311,77.238L272.189,77.238ZM267.311,79.198C267.379,81.204 268.951,82.07 270.73,82.07C272.029,82.07 272.964,81.888 273.808,81.569L274.218,83.506C273.26,83.894 271.938,84.19 270.342,84.19C266.74,84.19 264.62,81.979 264.62,78.583C264.62,75.504 266.489,72.61 270.046,72.61C273.647,72.61 274.833,75.573 274.833,78.012C274.833,78.537 274.787,78.947 274.742,79.198L267.311,79.198Z" style="fill:rgb(75,168,167);fill-rule:nonzero;"/>
        <path d="M276.43,82.413C276.43,81.364 277.159,80.611 278.162,80.611C279.188,80.611 279.895,81.34 279.895,82.413C279.895,83.438 279.21,84.213 278.162,84.213C277.136,84.213 276.43,83.438 276.43,82.413Z" style="fill:rgb(75,168,167);fill-rule:nonzero;"/>
        <path d="M286.984,68.597L289.766,68.597L289.766,75.665L289.834,75.665C290.199,75.072 290.587,74.525 290.951,74L294.964,68.597L298.429,68.597L293.14,75.14L298.771,83.962L295.488,83.962L291.134,76.918L289.766,78.56L289.766,83.962L286.984,83.962L286.984,68.597Z" style="fill:rgb(75,168,167);fill-rule:nonzero;"/>
        <path d="M300.254,76.166C300.254,74.889 300.23,73.818 300.162,72.861L302.624,72.861L302.762,74.525L302.83,74.525C303.309,73.659 304.517,72.61 306.363,72.61C308.301,72.61 310.307,73.864 310.307,77.375L310.307,83.962L307.503,83.962L307.503,77.693C307.503,76.097 306.91,74.889 305.383,74.889C304.266,74.889 303.49,75.687 303.194,76.531C303.104,76.782 303.08,77.124 303.08,77.443L303.08,83.962L300.254,83.962L300.254,76.166Z" style="fill:rgb(75,168,167);fill-rule:nonzero;"/>
        <path d="M315.482,78.422C315.482,80.566 316.531,82.184 318.24,82.184C319.836,82.184 320.953,80.611 320.953,78.377C320.953,76.645 320.178,74.662 318.264,74.662C316.28,74.662 315.482,76.577 315.482,78.422ZM323.849,78.309C323.849,82.389 320.977,84.213 318.149,84.213C315.003,84.213 312.587,82.047 312.587,78.491C312.587,74.844 314.98,72.61 318.332,72.61C321.637,72.61 323.849,74.935 323.849,78.309Z" style="fill:rgb(75,168,167);fill-rule:nonzero;"/>
        <path d="M327.657,72.861L328.82,77.899C329.07,79.083 329.321,80.292 329.526,81.5L329.572,81.5C329.8,80.292 330.165,79.061 330.484,77.921L331.92,72.861L334.2,72.861L335.591,77.785C335.933,79.083 336.229,80.292 336.48,81.5L336.525,81.5C336.708,80.292 336.958,79.083 337.255,77.785L338.485,72.861L341.244,72.861L337.756,83.962L335.157,83.962L333.835,79.449C333.493,78.286 333.242,77.238 332.992,75.892L332.946,75.892C332.718,77.26 332.422,78.354 332.103,79.449L330.689,83.962L328.067,83.962L324.785,72.861L327.657,72.861Z" style="fill:rgb(75,168,167);fill-rule:nonzero;"/>
        <rect x="343.047" y="67.777" width="2.826" height="16.185" style="fill:rgb(75,168,167);fill-rule:nonzero;"/>
        <path d="M355.767,77.238C355.789,76.211 355.334,74.525 353.464,74.525C351.731,74.525 351.002,76.097 350.889,77.238L355.767,77.238ZM350.889,79.198C350.957,81.204 352.529,82.07 354.308,82.07C355.607,82.07 356.542,81.888 357.386,81.569L357.796,83.506C356.838,83.894 355.516,84.19 353.92,84.19C350.318,84.19 348.198,81.979 348.198,78.583C348.198,75.504 350.067,72.61 353.624,72.61C357.226,72.61 358.411,75.573 358.411,78.012C358.411,78.537 358.365,78.947 358.32,79.198L350.889,79.198Z" style="fill:rgb(75,168,167);fill-rule:nonzero;"/>
        <path d="M368.102,77.488C368.102,77.26 368.078,76.987 368.033,76.758C367.782,75.665 366.894,74.775 365.616,74.775C363.815,74.775 362.813,76.372 362.813,78.446C362.813,80.474 363.815,81.957 365.594,81.957C366.733,81.957 367.736,81.181 368.01,79.973C368.078,79.722 368.102,79.449 368.102,79.152L368.102,77.488ZM370.905,67.777L370.905,80.839C370.905,81.979 370.951,83.21 370.996,83.962L368.489,83.962L368.375,82.208L368.329,82.208C367.668,83.438 366.323,84.213 364.705,84.213C362.061,84.213 359.963,81.957 359.963,78.537C359.94,74.821 362.266,72.61 364.933,72.61C366.46,72.61 367.555,73.248 368.056,74.069L368.102,74.069L368.102,67.777L370.905,67.777Z" style="fill:rgb(75,168,167);fill-rule:nonzero;"/>
        <path d="M381.164,77.306C381.164,77.055 381.142,76.782 381.073,76.553C380.776,75.528 379.979,74.752 378.793,74.752C377.221,74.752 376.058,76.121 376.058,78.377C376.058,80.269 377.015,81.796 378.771,81.796C379.819,81.796 380.73,81.113 381.05,80.11C381.118,79.813 381.164,79.426 381.164,79.107L381.164,77.306ZM384.06,72.861C384.014,73.613 383.968,74.525 383.968,76.052L383.968,82.344C383.968,84.669 383.489,86.333 382.327,87.382C381.164,88.408 379.568,88.727 378.041,88.727C376.628,88.727 375.123,88.43 374.165,87.837L374.781,85.717C375.487,86.129 376.673,86.561 378.019,86.561C379.842,86.561 381.21,85.604 381.21,83.21L381.21,82.252L381.164,82.252C380.525,83.233 379.386,83.894 377.927,83.894C375.169,83.894 373.208,81.615 373.208,78.468C373.208,74.821 375.579,72.61 378.246,72.61C379.933,72.61 380.937,73.43 381.46,74.342L381.506,74.342L381.62,72.861L384.06,72.861Z" style="fill:rgb(75,168,167);fill-rule:nonzero;"/>
        <path d="M393.841,77.238C393.863,76.211 393.408,74.525 391.538,74.525C389.806,74.525 389.076,76.097 388.963,77.238L393.841,77.238ZM388.963,79.198C389.031,81.204 390.604,82.07 392.382,82.07C393.682,82.07 394.616,81.888 395.46,81.569L395.87,83.506C394.912,83.894 393.59,84.19 391.994,84.19C388.393,84.19 386.272,81.979 386.272,78.583C386.272,75.504 388.142,72.61 391.698,72.61C395.3,72.61 396.485,75.573 396.485,78.012C396.485,78.537 396.439,78.947 396.395,79.198L388.963,79.198Z" style="fill:rgb(75,168,167);fill-rule:nonzero;"/>
        <path d="M398.082,82.413C398.082,81.364 398.812,80.611 399.814,80.611C400.84,80.611 401.547,81.34 401.547,82.413C401.547,83.438 400.862,84.213 399.814,84.213C398.788,84.213 398.082,83.438 398.082,82.413Z" style="fill:rgb(75,168,167);fill-rule:nonzero;"/>
    </g>
</svg>
